<svg version="1.1" xmlns="http://www.w3.org/2000/svg" xmlns:xlink="http://www.w3.org/1999/xlink" width="24px" height="24px" viewBox="0,0,256,256"><g fill="#bebebe" fill-rule="nonzero" stroke="none" stroke-width="1" stroke-linecap="butt" stroke-linejoin="miter" stroke-miterlimit="10" stroke-dasharray="" stroke-dashoffset="0" font-family="none" font-weight="none" font-size="none" text-anchor="none" style="mix-blend-mode: normal"><g transform="translate(0.69333,0.64) scale(10.66667,10.66667)"><g><path d="M20.87,20.17l-5.59,-5.59c1.07,-1.23 1.72,-2.83 1.72,-4.58c0,-3.87 -3.13,-7 -7,-7c-3.87,0 -7,3.13 -7,7c0,3.87 3.13,7 7,7c1.75,0 3.35,-0.65 4.58,-1.71l5.59,5.59zM10,16c-3.31,0 -6,-2.69 -6,-6c0,-3.31 2.69,-6 6,-6c3.31,0 6,2.69 6,6c0,3.31 -2.69,6 -6,6z"></path></g></g></g></svg>